<?xml version="1.0" encoding="utf-8"?>
<!DOCTYPE svg PUBLIC "-//W3C//DTD SVG 1.1//EN" "http://www.w3.org/Graphics/SVG/1.1/DTD/svg11.dtd">
<svg style="width:308px;height:308px;" version="1.1" id="图形" xmlns="http://www.w3.org/2000/svg" xmlns:xlink="http://www.w3.org/1999/xlink" x="0px" y="0px" width="1024px" height="1024px" viewBox="0 0 1024 1024" enable-background="new 0 0 1024 1024" xml:space="preserve">
  <path class="svgpath" data-index="path_0" fill="#CC2632" d="M807.585577 418.929278l10.413164-92.885504 120.456443 0-20.587897 92.885504L807.585577 418.929278 807.585577 418.929278zM886.90511 558.25651l-94.762247 0 10.336416-92.885504 105.052614 0L886.90511 558.25651 886.90511 558.25651zM835.833945 697.586812c-25.574469 0-46.402843-20.908192-46.402843-46.442752 0-25.535583 20.828374-46.442752 46.402843-46.442752 25.654286 0 46.442752 20.907169 46.442752 46.442752C882.276696 676.679643 861.488231 697.586812 835.833945 697.586812L835.833945 697.586812zM776.382924 279.602046 650.1008 279.602046l0-92.805686 136.575562 0L776.382924 279.602046 776.382924 279.602046zM760.863463 418.929278l-110.762663 0 0-92.885504 121.096009 0L760.863463 418.929278 760.863463 418.929278zM745.459634 558.25651l-95.359858 0 0-92.885504 105.616456 0L745.459634 558.25651 745.459634 558.25651zM603.697957 279.602046 477.457788 279.602046l-10.336416-92.805686 136.575562 0L603.696933 279.602046 603.697957 279.602046zM603.697957 418.929278 492.898455 418.929278l-10.293437-92.885504 121.092939 0L603.697957 418.929278 603.697957 418.929278zM603.697957 558.25651l-95.359858 0-10.29446-92.885504 105.653295 0L603.696933 558.25651 603.697957 558.25651zM417.967882 697.586812c-25.654286 0-46.482661-20.908192-46.482661-46.442752 0-25.535583 20.828374-46.442752 46.482661-46.442752s46.402843 20.907169 46.402843 46.442752C464.370725 676.679643 443.622168 697.586812 417.967882 697.586812L417.967882 697.586812zM341.199451 465.37203 451.322547 465.37203l10.333346 92.885504-95.597265 0L341.199451 465.37203 341.199451 465.37203zM328.712045 418.929278l-24.938995-92.885504 132.10883 0 10.293437 92.885504L328.712045 418.929278 328.712045 418.929278zM266.469446 186.795337l153.931858 0 10.293437 92.805686L291.325553 279.601023 266.469446 186.795337 266.469446 186.795337zM833.399499 186.795337l136.01786 0-20.589944 92.805686L823.144948 279.601023 833.399499 186.795337 833.399499 186.795337zM927.920246 586.984808l0.121773 0 92.885504-417.905972-0.478907 0c0.518816-1.834788 1.116427-3.671623 1.116427-5.585205 0-12.687974-10.373255-23.143093-23.179932-23.143093l-744.363162 0L221.063303 17.46272l-0.35918 0.317225c-2.873444-9.574053-11.368932-16.756639-21.824051-16.756639L23.241842 1.023306c-12.847609 0-23.220864 10.45205-23.220864 23.219841s10.374278 23.222911 23.220864 23.222911l157.802002 0L326.039169 588.1831l0.039909 0c1.99647 6.462179 6.783497 11.809977 13.005198 14.602579-8.736988 13.96506-14.044878 30.404474-14.044878 48.359404 0 51.308573 41.615816 92.885504 92.927459 92.885504 51.229778 0 92.805686-41.576931 92.805686-92.885504 0-16.997116-4.866844-32.797987-12.886495-46.442752l257.987772 0c-7.980765 13.644765-12.886495 29.444613-12.886495 46.442752 0 51.308573 41.533952 92.885504 92.844571 92.885504 51.309596 0 92.885504-41.576931 92.885504-92.885504 0-17.954931-5.225001-34.393321-13.925151-48.359404C921.258523 599.753623 926.125367 594.009805 927.920246 586.984808L927.920246 586.984808z" />

</svg>
