<?xml version="1.0" encoding="utf-8"?>
<!DOCTYPE svg PUBLIC "-//W3C//DTD SVG 1.1//EN" "http://www.w3.org/Graphics/SVG/1.1/DTD/svg11.dtd">
<svg style="width:308px;height:308px;" version="1.1" id="图形" xmlns="http://www.w3.org/2000/svg" xmlns:xlink="http://www.w3.org/1999/xlink" x="0px" y="0px" width="1024px" height="1024px" viewBox="0 0 1024 1024" enable-background="new 0 0 1024 1024" xml:space="preserve">
  <path class="svgpath" data-index="path_0" fill="#3e3e3e" d="M509.953 171.382c-189.818 0-344.19 154.374-344.19 344.19 0 189.821 154.372 344.191 344.193 344.191 189.819 0 344.189-154.37 344.189-344.191C854.146 325.755 699.775 171.382 509.953 171.382zM648.688 623.172 599.02 623.172l0 89.297-77.937 0 0-89.297L341.168 623.172l0-54.424 172.782-265.514 85.07 0 0 258.645 49.668 0L648.688 623.172zM521.083 561.879l0-134.21c0-11.447 0.351-24.57 1.057-39.365l-1.586 0c-1.411 3.348-3.17 7.752-5.283 13.209-2.291 5.639-5.639 11.889-10.039 18.758l-91.939 141.607L521.083 561.878z" />

</svg>
