<?xml version="1.0" encoding="utf-8"?>
<!DOCTYPE svg PUBLIC "-//W3C//DTD SVG 1.1//EN" "http://www.w3.org/Graphics/SVG/1.1/DTD/svg11.dtd">
<svg style="width:308px;height:308px;" version="1.1" id="图形" xmlns="http://www.w3.org/2000/svg" xmlns:xlink="http://www.w3.org/1999/xlink" x="0px" y="0px" width="1024px" height="1024px" viewBox="0 0 1024 1024" enable-background="new 0 0 1024 1024" xml:space="preserve">
  <path class="svgpath" data-index="path_0" fill="#3e3e3e" d="M512 973.696C257.792 973.696 51.584 766.976 51.584 512S257.792 50.304 512 50.304c254.336 0 460.416 206.72 460.416 461.696S766.208 973.696 512 973.696L512 973.696 512 973.696zM665.728 669.184 491.904 669.184c4.48-7.936 10.496-16 17.92-24.32 7.296-8.32 24.832-25.216 52.48-50.56 27.648-25.344 46.848-44.8 57.472-58.368 16-20.352 27.648-39.808 35.072-58.496 7.296-18.56 11.008-38.272 11.008-58.88 0-36.224-12.928-66.432-38.528-90.752-25.728-24.32-61.184-36.48-106.112-36.48-41.088 0-75.264 10.496-102.656 31.488-27.392 20.992-43.648 55.68-48.768 104.064l87.424 8.704c1.664-25.6 7.936-44.032 18.56-55.04 10.752-11.008 25.216-16.64 43.392-16.64 18.304 0 32.768 5.248 43.136 15.744 10.496 10.624 15.616 25.6 15.616 45.184 0 17.664-6.016 35.584-18.048 53.76-8.96 13.184-33.024 38.016-72.32 75.008-48.896 45.568-81.664 82.176-98.304 109.696-16.64 27.648-26.496 56.832-29.824 87.552l306.56 0L665.984 669.184 665.728 669.184 665.728 669.184zM665.728 669.184" />

</svg>
