<?xml version="1.0" encoding="utf-8"?>
<!DOCTYPE svg PUBLIC "-//W3C//DTD SVG 1.1//EN" "http://www.w3.org/Graphics/SVG/1.1/DTD/svg11.dtd">
<svg style="width:308px;height:308px;" version="1.1" id="图形" xmlns="http://www.w3.org/2000/svg" xmlns:xlink="http://www.w3.org/1999/xlink" x="0px" y="0px" width="1024px" height="1024px" viewBox="0 0 1024 1024" enable-background="new 0 0 1024 1024" xml:space="preserve">
  <path class="svgpath" data-index="path_0" fill="#3e3e3e" d="M533.640879 495.544213c-14.170744 0-26.15673 5.553483-35.951817 16.661472-9.800203 11.112082-14.694677 27.517727-14.694677 49.209772 0 23.970948 5.509481 42.473347 16.531512 55.502082 11.022031 13.037944 23.622 19.550265 37.792745 19.550265 13.642718 0 25.01472-5.334495 34.116005-16.007579 9.092076-10.66899 13.646811-28.163433 13.646811-52.483328 0-25.018813-4.89959-43.346227-14.699794-54.982242C560.581462 501.362732 548.340673 495.544213 533.640879 495.544213zM511.855714 64.004733c-247.359714 0-447.882704 200.524013-447.882704 447.88782 0 247.359714 200.524013 447.88782 447.882704 447.88782 247.363807 0 447.891913-200.528106 447.891913-447.88782C959.747627 264.528746 759.219521 64.004733 511.855714 64.004733zM622.609167 661.925614c-23.098068 23.795962-52.752458 35.691897-88.968288 35.691897-38.84061 0-70.770833-15.089673-95.785553-45.27209-25.02393-30.178323-37.528732-79.648015-37.528732-148.402935 0-70.50682 13.028735-121.332393 39.10053-152.47467 26.066679-31.141254 59.922764-46.714951 101.56314-46.714951 29.215392 0 53.40635 8.178263 72.562643 24.539906 19.156292 16.356526 31.361265 40.108486 36.609803 71.249741l-71.383794 7.874341c-1.750877-14.699794-6.297426-25.542746-13.642718-32.543184-7.349385-6.996344-16.889669-10.498098-28.606525-10.498098-15.572674 0-28.736485 7.000438-39.499619 20.99722-10.758018 13.996782-17.539468 43.12724-20.338211 87.387279 18.372439-21.691021 41.205471-32.53909 68.495-32.53909 30.792307 0 57.168024 11.720949 79.124082 35.163871 21.955034 23.447015 32.937157 53.715389 32.937157 90.805122C657.249105 606.553493 645.702118 638.133745 622.609167 661.925614z" />

</svg>
