<?xml version="1.0" encoding="utf-8"?>
<!DOCTYPE svg PUBLIC "-//W3C//DTD SVG 1.1//EN" "http://www.w3.org/Graphics/SVG/1.1/DTD/svg11.dtd">
<svg style="width:308px;height:308px;" version="1.1" id="图形" xmlns="http://www.w3.org/2000/svg" xmlns:xlink="http://www.w3.org/1999/xlink" x="0px" y="0px" width="1024px" height="1024px" viewBox="0 0 1024 1024" enable-background="new 0 0 1024 1024" xml:space="preserve">
  <path class="svgpath" data-index="path_0" fill="#3e3e3e" d="M511.008416 63.295582c-246.565629 0-446.445982 199.87626-446.445982 446.451098 0 246.561535 199.880353 446.451098 446.445982 446.451098 246.569722 0 446.455191-199.889563 446.455191-446.451098C957.463608 263.171841 757.579161 63.295582 511.008416 63.295582zM587.92318 688.344311l-73.508177 0L514.415003 411.317926c-26.858718 25.112957-58.511625 43.684942-94.959745 55.721069L419.455257 400.330688c19.183921-6.27696 40.024575-18.179035 62.520939-35.707246 22.496363-17.527189 37.930891-37.9708 46.301536-61.34209l59.645448 0L587.92318 688.344311z" />

</svg>
